<svg width="44" height="34" viewBox="0 0 44 34" fill="none" xmlns="http://www.w3.org/2000/svg">
<path d="M39.25 10.3333C36.375 10.3333 34.8417 13.0167 35.6084 15.125L28.7084 22.025C28.1334 21.8333 27.3667 21.8333 26.7917 22.025L21.8084 17.0417C22.575 14.9333 21.0417 12.25 18.1667 12.25C15.4834 12.25 13.7584 14.9333 14.525 17.0417L5.70835 25.6667C3.60002 25.0917 0.916687 26.625 0.916687 29.5C0.916687 31.6083 2.64169 33.3333 4.75002 33.3333C7.43335 33.3333 9.15835 30.65 8.39169 28.5417L17.0167 19.725C17.5917 19.9167 18.3584 19.9167 18.9334 19.725L23.9167 24.7083C23.3417 26.625 24.875 29.5 27.75 29.5C30.625 29.5 32.1584 26.8167 31.3917 24.7083L38.2917 17.8083C40.4 18.3833 43.0834 16.85 43.0834 14.1667C43.0834 12.0583 41.3584 10.3333 39.25 10.3333ZM27.75 12.25L29.475 8.225L33.5 6.5L29.475 4.775L27.75 0.75L26.025 4.775L22 6.5L26.025 8.225L27.75 12.25ZM5.70835 16.0833L6.66669 12.25L10.5 11.2917L6.66669 10.3333L5.70835 6.5L4.75002 10.3333L0.916687 11.2917L4.75002 12.25L5.70835 16.0833Z" fill="#343434"/>
</svg>
